<?xml version="1.0" standalone="no"?>
<!DOCTYPE svg PUBLIC "-//W3C//DTD SVG 20010904//EN"
 "http://www.w3.org/TR/2001/REC-SVG-20010904/DTD/svg10.dtd">
<svg version="1.0" xmlns="http://www.w3.org/2000/svg"
 width="225.000000pt" height="225.000000pt" viewBox="0 0 225.000000 225.000000"
 preserveAspectRatio="xMidYMid meet">
<metadata>
Created by potrace 1.15, written by Peter Selinger 2001-2017
</metadata>
<g transform="translate(0.000000,225.000000) scale(0.100000,-0.100000)"
fill="#000000" stroke="none">
<path d="M927 2175 c-483 -91 -838 -472 -898 -962 -38 -317 91 -671 329 -900
120 -115 327 -237 425 -251 58 -8 67 9 67 133 l0 102 -52 -9 c-95 -16 -201 13
-261 70 -16 15 -46 61 -67 103 -29 56 -55 90 -101 131 -68 60 -70 78 -12 78
64 0 120 -36 175 -111 77 -105 158 -137 274 -108 40 10 45 15 55 53 5 22 19
53 30 69 23 31 18 47 -14 47 -43 0 -142 30 -214 65 -127 62 -202 171 -230 334
-27 155 -6 280 65 384 31 44 32 47 21 98 -12 55 -6 137 13 203 l12 38 54 -4
c39 -4 81 -19 156 -57 l101 -51 78 15 c43 8 130 15 192 15 62 0 149 -7 192
-15 l78 -15 101 51 c75 38 117 53 156 57 l54 4 12 -38 c20 -69 24 -139 12
-197 -11 -56 -11 -57 21 -103 72 -105 95 -239 66 -391 -30 -160 -105 -267
-230 -328 -75 -36 -171 -65 -219 -65 -15 0 -28 -2 -28 -4 0 -2 12 -28 28 -57
26 -52 27 -58 32 -264 3 -115 9 -216 13 -222 22 -35 157 11 303 102 98 61 247
204 313 300 335 484 228 1142 -242 1496 -103 78 -257 152 -382 185 -127 33
-355 42 -478 19z"/>
</g>
</svg>
